<svg width="176" height="176" viewBox="0 0 176 176" fill="none" xmlns="http://www.w3.org/2000/svg">
<path d="M96.4926 1.95816C99.9326 3.83578 101.77 6.2323 104.118 9.33316C106.97 12.7762 106.97 12.7762 111.153 13.88C114.265 13.5749 117.292 13.0782 120.368 12.5207C128.472 11.7356 134.642 12.6858 141.368 17.5207C144.834 21.0187 146.914 24.5357 147.368 29.5207C148.107 29.6225 148.847 29.7243 149.61 29.8293C154.751 31.1182 158.694 34.9384 161.547 39.341C165.546 48.4436 163.427 59.1808 161.368 68.5207C162.28 68.9615 162.28 68.9615 163.211 69.4113C169.238 72.5121 173.22 77.0766 175.368 83.5207C175.934 89.2377 175.698 93.6758 172.368 98.5207C169.516 101.685 166.609 104.753 163.368 107.521C162.708 107.521 162.048 107.521 161.368 107.521C161.584 108.503 161.584 108.503 161.805 109.505C163.685 118.75 165.826 130.099 160.368 138.521C156.48 142.845 153.239 145.713 147.368 146.521C147.12 147.387 146.873 148.253 146.618 149.146C144.27 155.483 141.272 159.486 135.286 162.614C129.485 164.416 119.888 165.281 114.368 162.521C111.473 162.036 111.473 162.036 108.368 162.521C105.914 164.578 105.914 164.578 103.868 167.333C100.163 171.984 96.8389 175.035 90.7699 175.884C82.8764 175.721 78.116 174.208 72.3676 168.521C71.568 167.401 70.7761 166.276 69.9926 165.146C69.1263 164.279 68.2601 163.413 67.3676 162.521C64.141 162.541 64.141 162.541 61.8715 163.075C54.1537 164.448 44.1425 165.108 37.3676 160.521C33.927 157.303 31.1242 153.908 28.8676 149.771C27.0734 147.079 25.027 146.156 22.2113 144.677C16.844 141.311 13.9713 136.542 12.3676 130.521C12.1371 127.407 12.1371 127.407 12.1801 124.208C12.1852 123.074 12.1904 121.939 12.1957 120.771C12.3462 117.925 12.797 115.471 13.4301 112.708C13.8368 110.579 13.8368 110.579 13.3676 108.521C11.3261 106.195 9.10087 104.396 6.67226 102.482C2.69162 99.0947 0.785897 95.376 0.0316301 90.2277C-0.189057 85.1604 0.726372 81.9437 3.36757 77.5207C5.07131 75.928 6.82423 74.3867 8.61757 72.8957C12.3566 69.3566 12.3566 69.3566 13.7973 64.5949C13.4862 61.5202 12.9599 58.5528 12.3676 55.5207C11.7639 48.344 11.89 42.4161 16.3676 36.5207C19.3943 33.3823 22.4782 30.3814 26.4769 28.5597C28.8077 27.2788 29.4026 26.1099 30.6176 23.7707C33.8036 18.3385 38.3777 14.5173 44.3676 12.5207C46.1989 12.4246 48.0338 12.3908 49.8676 12.3957C50.9388 12.3892 52.01 12.3828 53.1137 12.3761C56.3676 12.5207 56.3676 12.5207 59.2152 13.1339C62.2372 13.7731 64.3147 14.0773 67.3676 13.5207C70.645 10.9877 73.2672 8.28447 75.9574 5.15738C81.4082 -0.805826 89.182 -1.2059 96.4926 1.95816Z" fill="#747C64"/>
<path d="M141.367 65.5205C149.334 68.2638 162.484 76.7549 166.367 84.5205C166.869 88.8669 166.858 90.847 164.242 94.4346C161.458 97.5891 158.353 100.132 154.992 102.646C154.453 103.062 153.915 103.478 153.359 103.907C149.535 106.812 145.576 109.209 141.367 111.521C140.783 110.703 140.783 110.703 140.188 109.868C133.402 100.722 125.681 93.4782 115.367 88.5205C116.707 85.8404 117.999 85.7296 120.742 84.583C129.341 80.4442 135.583 72.9452 141.367 65.5205Z" fill="#F7F6F3"/>
<path d="M35.3668 65.5205C36.8122 67.2432 36.8122 67.2432 38.4918 69.583C44.8589 77.9414 52.0154 82.8276 61.3669 87.5205C58.4305 89.8135 55.3892 91.6979 52.1794 93.583C45.2048 97.9678 39.9228 103.687 35.3668 110.521C28.8238 108.275 23.7541 103.719 18.3668 99.5205C17.6927 99.0049 17.0185 98.4893 16.3239 97.958C11.2808 93.9734 11.2808 93.9734 10.3669 90.5205C10.2297 86.9556 10.6064 84.5686 12.7301 81.6416C17.2551 76.8454 28.4339 65.5205 35.3668 65.5205Z" fill="#F8F7F5"/>
<path d="M108.242 51.6455C110.246 51.9736 110.246 51.9736 112.367 52.5205C113.556 52.6984 113.556 52.6984 114.77 52.8799C117.372 53.4367 119.163 54.0198 121.367 55.5205C124.057 60.3468 125.036 66.0565 124.367 71.5205C117.626 78.2353 106.112 82.7203 96.6172 82.7705C95.5447 82.688 94.4722 82.6055 93.3672 82.5205C94.1887 72.3337 96.5115 54.2944 108.242 51.6455Z" fill="#F6F5F3"/>
<path d="M93.3672 93.5205C104.877 93.8063 114.96 98.0645 124.367 104.521C123.526 115.723 123.526 115.723 121.367 120.521C118.773 122.25 117.396 122.934 114.492 123.646C113.835 123.813 113.177 123.981 112.5 124.153C110.009 124.582 107.889 124.78 105.367 124.521C98.3821 119.114 95.351 107.895 93.8359 99.6182C93.6056 97.5927 93.4725 95.5563 93.3672 93.5205Z" fill="#F7F6F3"/>
<path d="M82.3676 93.5201C83.2114 104.489 78.9871 113.945 72.3676 122.52C71.3676 123.52 71.3676 123.52 67.8051 123.77C63.2952 123.648 58.9819 123.453 55.3676 120.52C53.0661 115.648 51.7006 109.911 52.3676 104.52C59.2459 96.9504 72.522 93.0942 82.3676 93.5201Z" fill="#F7F6F4"/>
<path d="M67.9922 51.708C72.7929 52.8637 74.2152 55.377 76.7891 59.458C80.49 66.6401 83.1242 74.3822 82.3672 82.5205C70.8858 82.2719 61.3428 78.6602 52.3672 71.5205C52.6267 68.5089 52.9764 65.5178 53.3672 62.5205C53.5322 61.2418 53.6972 59.963 53.8672 58.6455C55.5643 55.1099 56.041 54.8656 59.5547 53.583C62.3546 52.8931 65.1775 52.3389 67.9922 51.708Z" fill="#F7F7F4"/>
<path d="M69.3672 27.5205C75.5133 29.1474 78.696 33.7643 81.8594 38.9814C83.0667 41.1437 84.2378 43.3167 85.3672 45.5205C87.3472 45.5205 89.3272 45.5205 91.3672 45.5205C91.8777 44.4512 91.8777 44.4512 92.3984 43.3604C95.7985 36.6417 99.3193 32.018 105.367 27.5205C107.93 29.7705 107.93 29.7705 110.367 32.5205C110.211 35.1783 109.725 36.2023 107.73 37.9775C107.054 38.4248 106.377 38.8721 105.68 39.333C97.8495 44.926 93.6146 52.0257 89.3672 60.5205C88.7072 60.5205 88.0472 60.5205 87.3672 60.5205C86.2356 58.729 85.1877 56.8843 84.1797 55.0205C79.2114 46.2952 73.6357 40.1903 65.3672 34.5205C66.6872 32.2105 68.0072 29.9005 69.3672 27.5205Z" fill="#F4F3F1"/>
<path d="M87.3672 115.521C90.4755 117.593 90.9501 118.322 92.4922 121.521C96.6456 129.288 102.656 136.17 110.367 140.521C109.871 145.11 109.871 145.11 107.32 147.188C106.676 147.628 106.031 148.068 105.367 148.521C98.6297 143.51 94.966 138.059 91.3672 130.521C88.5124 130.051 88.5124 130.051 85.3672 130.521C83.3545 132.948 83.3545 132.948 81.9297 136.146C79.0096 141.635 76.437 144.942 71.3672 148.521C70.7072 148.521 70.0472 148.521 69.3672 148.521C68.0472 146.211 66.7272 143.901 65.3672 141.521C66.0568 141.022 66.7465 140.523 67.457 140.009C76.2245 133.31 82.6523 125.61 87.3672 115.521Z" fill="#F4F4F1"/>
<path d="M92.3672 10.5206C95.2259 12.4405 97.5893 14.5555 99.3672 17.5206C99.2349 20.1823 98.6675 21.2127 96.8086 23.1183C96.1886 23.6017 95.5685 24.0851 94.9297 24.5831C92.4544 26.5313 91.163 27.8269 89.3672 30.5206C86.1816 29.1243 84.1277 27.475 81.7422 24.9581C79.322 22.3804 79.322 22.3804 76.3672 20.5206C79.6286 13.1825 83.9208 8.64363 92.3672 10.5206Z" fill="#F6F5F3"/>
<path d="M87.3672 145.521C90.6438 146.613 91.2833 147.348 93.3672 149.958C95.3315 152.408 96.6879 153.734 99.3672 155.521C98.6106 159.475 97.1493 161.571 94.2383 164.294C91.3637 166.178 89.0208 166.462 85.625 166.255C81.3004 164.848 78.7136 161.278 76.3672 157.521C76.3672 156.861 76.3672 156.201 76.3672 155.521C78.0834 154.299 79.8024 153.082 81.543 151.896C83.9401 150.089 85.63 147.953 87.3672 145.521Z" fill="#F7F6F3"/>
<path d="M138.367 124.521C139.368 127.831 139.471 130.821 139.43 134.271C139.421 135.255 139.412 136.24 139.402 137.255C139.391 138.003 139.379 138.75 139.367 139.521C137.784 139.575 136.201 139.613 134.617 139.646C133.735 139.669 132.854 139.692 131.945 139.716C129.254 139.512 127.668 138.886 125.367 137.521C125.64 133.606 126.117 131.818 128.68 128.771C132.064 125.937 133.932 124.521 138.367 124.521Z" fill="#F1F1ED"/>
<path d="M139.367 36.5208C139.585 41.9597 139.471 46.3916 137.367 51.5208C129.306 49.7463 129.306 49.7463 127.102 46.8684C125.874 44.0225 125.367 41.616 125.367 38.5208C130.016 36.1216 134.278 36.3212 139.367 36.5208Z" fill="#F3F2EF"/>
<path d="M39.3672 124.521C47.4954 126.957 47.4954 126.957 49.6328 130.79C50.3514 133.027 50.938 135.212 51.3672 137.521C46.7187 139.92 42.4563 139.72 37.3672 139.521C37.3129 137.771 37.2743 136.021 37.2422 134.271C37.2074 132.809 37.2074 132.809 37.1719 131.317C37.3686 128.501 37.9215 126.911 39.3672 124.521Z" fill="#F3F2EF"/>
<path d="M37.3667 37.5205C38.95 37.4933 40.5333 37.474 42.1167 37.458C43.4393 37.4406 43.4393 37.4406 44.7886 37.4229C47.1486 37.5122 49.1117 37.8514 51.3667 38.5205C49.387 46.8042 49.387 46.8042 45.4292 49.583C42.3667 50.5205 42.3667 50.5205 38.3667 50.5205C37.4944 47.5257 37.2584 44.8847 37.3042 41.7705C37.3133 40.9713 37.3223 40.1721 37.3316 39.3486C37.3432 38.7454 37.3548 38.1421 37.3667 37.5205Z" fill="#F7F6F3"/>
<path d="M148.367 40.5205C150.741 41.4699 152.099 42.0982 153.488 44.2861C154.499 46.8562 154.601 48.7666 154.555 51.5205C154.545 52.7889 154.545 52.7889 154.535 54.083C154.379 56.353 153.998 58.3401 153.367 60.5205C150.405 59.9077 148.987 59.2668 146.367 57.5205C146.984 51.847 147.647 46.1819 148.367 40.5205Z" fill="#EBEBE5"/>
<path d="M153.367 115.521C155 120.418 154.884 125.41 154.367 130.521C152.492 133.771 152.492 133.771 150.367 135.521C149.707 135.521 149.047 135.521 148.367 135.521C148.029 133.626 147.697 131.73 147.367 129.833C147.182 128.777 146.996 127.722 146.805 126.634C146.412 123.837 146.1 121.332 146.367 118.521C148.751 116.702 150.326 115.521 153.367 115.521Z" fill="#ECECE6"/>
<path d="M115.367 22.5205C117.764 22.4391 120.157 22.3798 122.555 22.333C123.228 22.3078 123.902 22.2827 124.596 22.2568C129.065 22.1914 131.823 22.7642 135.367 25.5205C135.697 26.1805 136.027 26.8405 136.367 27.5205C135.475 27.6532 134.583 27.786 133.664 27.9228C132.494 28.0994 131.323 28.276 130.117 28.458C128.377 28.719 128.377 28.719 126.602 28.9853C124.136 29.3932 121.773 29.8595 119.367 30.5205C115.367 24.7705 115.367 24.7705 115.367 22.5205Z" fill="#EFEFEA"/>
<path d="M119.367 145.521C120.316 145.83 121.265 146.139 122.242 146.458C126.877 147.8 131.573 148.154 136.367 148.521C136.367 150.521 136.367 150.521 134.883 152.134C131.348 154.082 128.038 153.843 124.117 153.708C123 153.688 123 153.688 121.859 153.667C120.028 153.632 118.198 153.578 116.367 153.521C116.367 149.945 117.456 148.468 119.367 145.521Z" fill="#F0EFEB"/>
<path d="M58.3672 22.5203C59.0272 23.1803 59.6872 23.8403 60.3672 24.5203C59.3772 26.1703 58.3872 27.8203 57.3672 29.5203C56.2328 29.3759 55.0984 29.2315 53.9297 29.0828C49.4137 28.5172 44.8917 28.0125 40.3672 27.5203C44.7873 20.9719 50.9825 21.5632 58.3672 22.5203Z" fill="#F2F2EF"/>
<path d="M23.3672 115.521C26.8322 117.501 26.8322 117.501 30.3672 119.521C29.3772 124.801 28.3872 130.081 27.3672 135.521C23.3672 132.521 23.3672 132.521 22.3672 129.521C22.2739 127.877 22.2372 126.229 22.2422 124.583C22.2396 123.728 22.237 122.874 22.2344 121.993C22.3579 119.694 22.723 117.724 23.3672 115.521Z" fill="#F2F1EE"/>
<path d="M26.367 40.5205C26.697 40.5205 27.027 40.5205 27.367 40.5205C27.4998 41.3404 27.6325 42.1602 27.7693 43.0049C27.9459 44.0825 28.1225 45.1602 28.3045 46.2705C28.4785 47.3379 28.6525 48.4052 28.8318 49.5049C29.254 51.884 29.739 54.1897 30.367 56.5205C28.057 57.8405 25.747 59.1605 23.367 60.5205C22.0748 55.5133 21.0456 49.4635 23.2264 44.6064C24.3045 42.958 24.3045 42.958 26.367 40.5205Z" fill="#F3F2F0"/>
<path d="M57.3672 146.52C58.3572 148.5 59.3472 150.48 60.3672 152.52C57.5551 153.926 55.1271 153.766 51.9922 153.833C50.279 153.889 50.279 153.889 48.5312 153.946C44.788 153.442 43.6858 152.416 41.3672 149.52C43.094 149.012 44.8238 148.514 46.5547 148.02C47.5176 147.742 48.4805 147.463 49.4727 147.177C52.2206 146.554 54.5632 146.397 57.3672 146.52Z" fill="#F6F5F3"/>
</svg>
