<svg width="803" height="176" viewBox="0 0 803 176" fill="none" xmlns="http://www.w3.org/2000/svg">
<path d="M260.875 106.312C260.875 110.938 259.667 115 257.25 118.5C254.875 122 251.646 124.729 247.562 126.688C243.521 128.646 239 129.625 234 129.625C230.208 129.625 227.333 129.25 225.375 128.5C223.458 127.792 221.875 127.083 220.625 126.375C219.417 125.625 217.979 125.25 216.312 125.25C214.896 125.25 213.75 125.646 212.875 126.438C212 127.229 211.208 128.292 210.5 129.625H206.312V100.75H210.75C211.125 104.292 212.229 107.896 214.062 111.562C215.938 115.188 218.562 118.229 221.938 120.688C225.312 123.146 229.438 124.375 234.312 124.375C237.646 124.375 240.604 123.438 243.188 121.562C245.771 119.688 247.062 117.083 247.062 113.75C247.062 110.75 246.104 108.167 244.188 106C242.271 103.792 239.792 101.812 236.75 100.062C233.708 98.2708 230.479 96.5 227.062 94.75C223.646 92.9583 220.417 91.0208 217.375 88.9375C214.333 86.8542 211.854 84.3958 209.938 81.5625C208.021 78.7292 207.062 75.3542 207.062 71.4375C207.062 67.1875 208.083 63.4375 210.125 60.1875C212.167 56.8958 215 54.3333 218.625 52.5C222.25 50.625 226.396 49.6875 231.062 49.6875C234.396 49.6875 237.146 50.125 239.312 51C241.521 51.8333 243.396 52.6875 244.938 53.5625C246.479 54.3958 247.938 54.8125 249.312 54.8125C250.312 54.8125 251.062 54.3125 251.562 53.3125C252.104 52.3125 252.479 51.1042 252.688 49.6875H257V78.1875H252.312C251.854 73.4792 250.583 69.4167 248.5 66C246.417 62.5417 243.854 59.875 240.812 58C237.812 56.125 234.667 55.1875 231.375 55.1875C228.333 55.1875 225.688 56.125 223.438 58C221.188 59.8333 220.062 62.2708 220.062 65.3125C220.062 67.9375 221.042 70.2292 223 72.1875C224.958 74.1458 227.479 75.9792 230.562 77.6875C233.688 79.3542 236.979 81.0625 240.438 82.8125C243.938 84.5208 247.229 86.4375 250.312 88.5625C253.438 90.6875 255.979 93.1875 257.938 96.0625C259.896 98.9375 260.875 102.354 260.875 106.312ZM301.875 113.25H305.562C305.271 115.125 304.479 117.375 303.188 120C301.938 122.583 300.042 124.854 297.5 126.812C295 128.771 291.688 129.75 287.562 129.75C283.521 129.75 280.417 128.229 278.25 125.188C276.083 122.104 275 117.792 275 112.25V81.8125H266.125V78.375C268.875 77.875 271.562 76.6875 274.188 74.8125C276.812 72.9375 279.25 70.625 281.5 67.875C283.792 65.125 285.75 62.2083 287.375 59.125H291.125V76.25H304.812V81.8125H291.125V110.125C291.125 113.5 291.5 115.896 292.25 117.312C293 118.729 294.125 119.438 295.625 119.438C296.875 119.438 298.042 118.875 299.125 117.75C300.208 116.625 301.125 115.125 301.875 113.25ZM363.812 115V120.5C363.146 121.25 361.979 122.312 360.312 123.688C358.646 125.062 356.667 126.312 354.375 127.438C352.125 128.521 349.75 129.062 347.25 129.062C344.833 129.062 342.792 128.271 341.125 126.688C339.458 125.104 338.625 123.292 338.625 121.25C336.167 123.375 333.667 125.208 331.125 126.75C328.583 128.292 325.708 129.062 322.5 129.062C318.708 129.062 315.75 127.875 313.625 125.5C311.542 123.125 310.5 119.854 310.5 115.688C310.5 112.854 311.458 110.292 313.375 108C315.333 105.667 317.792 103.604 320.75 101.812C323.708 100.021 326.792 98.4583 330 97.125C333.208 95.7917 336.083 94.6667 338.625 93.75V91.625C338.625 88.125 338.062 85.25 336.938 83C335.854 80.7083 334.125 79.5625 331.75 79.5625C329.792 79.5625 328.375 80.125 327.5 81.25C326.667 82.3333 326.25 84.5 326.25 87.75C326.25 89.4167 325.708 91.125 324.625 92.875C323.583 94.625 321.625 95.5 318.75 95.5C316.708 95.5 315.021 94.875 313.688 93.625C312.396 92.375 311.75 90.6667 311.75 88.5C311.75 85.5417 312.896 83.0417 315.188 81C317.479 78.9167 320.271 77.3542 323.562 76.3125C326.854 75.2292 329.979 74.6875 332.938 74.6875C340.979 74.6875 346.646 76.0208 349.938 78.6875C353.229 81.3542 354.875 85.9167 354.875 92.375V107.75C354.875 109.208 354.875 110.729 354.875 112.312C354.917 113.854 355.021 115.104 355.188 116.062C355.312 116.771 355.542 117.417 355.875 118C356.25 118.583 356.854 118.875 357.688 118.875C358.521 118.875 359.604 118.375 360.938 117.375C362.312 116.333 363.271 115.542 363.812 115ZM338.625 114.5V99.125C333.833 101.25 330.583 103.479 328.875 105.812C327.208 108.104 326.375 110.521 326.375 113.062C326.375 114.688 326.771 116.104 327.562 117.312C328.396 118.479 329.562 119.062 331.062 119.062C332.271 119.062 333.542 118.625 334.875 117.75C336.208 116.833 337.458 115.75 338.625 114.5ZM423.812 76.25V80.75C421.396 80.875 419.583 81.5208 418.375 82.6875C417.167 83.8125 416.104 85.4375 415.188 87.5625L395 135.625C392.417 141.792 389.312 146.229 385.688 148.938C382.104 151.688 378.5 153.062 374.875 153.062C373.208 153.062 371.5 152.729 369.75 152.062C368.042 151.438 366.604 150.458 365.438 149.125C364.312 147.833 363.75 146.208 363.75 144.25C363.75 141.5 364.521 139.542 366.062 138.375C367.604 137.25 369.208 136.688 370.875 136.688C373 136.688 374.625 137.167 375.75 138.125C376.875 139.083 377.875 140.042 378.75 141C379.667 142 380.833 142.5 382.25 142.5C383.5 142.5 384.708 141.625 385.875 139.875C387.083 138.125 388.188 136.062 389.188 133.688C390.188 131.354 391.021 129.333 391.688 127.625L374.438 88.1875C373.146 85.2292 371.875 83.3542 370.625 82.5625C369.375 81.7708 367.479 81.1667 364.938 80.75V76.25H396.25V80.75C394.125 80.75 392.625 81.0833 391.75 81.75C390.875 82.4167 390.438 83.4167 390.438 84.75C390.438 86.1667 390.833 87.7917 391.625 89.625L399.875 108.5L408.375 88.1875C408.667 87.4792 408.875 86.875 409 86.375C409.167 85.875 409.25 85.2917 409.25 84.625C409.25 82.0417 407.208 80.75 403.125 80.75V76.25H423.812ZM497.188 107.062C497.188 111.688 495.792 115.562 493 118.688C490.25 121.771 486.688 124.104 482.312 125.688C477.979 127.229 473.396 128 468.562 128H426.312V123.5C430.938 123.5 433.896 122.708 435.188 121.125C436.521 119.542 437.188 116.792 437.188 112.875V66.5C437.188 62.5417 436.521 59.7917 435.188 58.25C433.896 56.6667 430.938 55.875 426.312 55.875V51.375H469.062C474.896 51.375 479.604 52.3333 483.188 54.25C486.771 56.1667 489.375 58.5 491 61.25C492.667 64 493.5 66.6667 493.5 69.25C493.5 71.8333 493.104 74.25 492.312 76.5C491.562 78.75 489.896 80.7708 487.312 82.5625C484.729 84.3542 480.75 85.9167 475.375 87.25C483.083 88.7917 488.646 91.2292 492.062 94.5625C495.479 97.8542 497.188 102.021 497.188 107.062ZM474.625 70.6875C474.625 66.4792 473.479 63.3333 471.188 61.25C468.896 59.1667 464.708 58.125 458.625 58.125C457.792 58.125 457.083 58.1667 456.5 58.25C455.958 58.3333 455.458 58.4167 455 58.5V84.8125C455.25 84.8125 455.708 84.8333 456.375 84.875C457.042 84.9167 457.792 84.9375 458.625 84.9375C464.042 84.9375 468.062 83.6458 470.688 81.0625C473.312 78.4792 474.625 75.0208 474.625 70.6875ZM477.25 107.625C477.25 101.833 475.604 97.6458 472.312 95.0625C469.062 92.4375 464.5 91.125 458.625 91.125C456.917 91.125 455.708 91.1875 455 91.3125V114.625C455 117.333 455.5 119.125 456.5 120C457.542 120.875 459.104 121.312 461.188 121.312C463.562 121.312 465.979 120.979 468.438 120.312C470.938 119.604 473.021 118.271 474.688 116.312C476.396 114.354 477.25 111.458 477.25 107.625ZM556.812 101.062C556.812 106.146 555.771 110.875 553.688 115.25C551.646 119.625 548.708 123.146 544.875 125.812C541.042 128.438 536.438 129.75 531.062 129.75C525.562 129.75 520.812 128.479 516.812 125.938C512.854 123.354 509.792 120 507.625 115.875C505.5 111.708 504.438 107.292 504.438 102.625C504.438 97.7917 505.479 93.25 507.562 89C509.688 84.75 512.688 81.3125 516.562 78.6875C520.479 76.0208 525.125 74.6875 530.5 74.6875C535.708 74.6875 540.292 75.875 544.25 78.25C548.208 80.625 551.292 83.8125 553.5 87.8125C555.708 91.7708 556.812 96.1875 556.812 101.062ZM540.438 105.562C540.438 101.479 539.958 97.5208 539 93.6875C538.083 89.8125 536.708 86.625 534.875 84.125C533.083 81.5833 530.833 80.3125 528.125 80.3125C526.417 80.3125 524.792 81.5625 523.25 84.0625C521.708 86.5208 520.938 91.1458 520.938 97.9375C520.938 102.604 521.562 106.917 522.812 110.875C524.062 114.833 525.646 118.021 527.562 120.438C529.521 122.812 531.562 124 533.688 124C535.896 124 537.562 122.604 538.688 119.812C539.854 116.979 540.438 112.229 540.438 105.562ZM615.438 101.062C615.438 106.146 614.396 110.875 612.312 115.25C610.271 119.625 607.333 123.146 603.5 125.812C599.667 128.438 595.062 129.75 589.688 129.75C584.188 129.75 579.438 128.479 575.438 125.938C571.479 123.354 568.417 120 566.25 115.875C564.125 111.708 563.062 107.292 563.062 102.625C563.062 97.7917 564.104 93.25 566.188 89C568.312 84.75 571.312 81.3125 575.188 78.6875C579.104 76.0208 583.75 74.6875 589.125 74.6875C594.333 74.6875 598.917 75.875 602.875 78.25C606.833 80.625 609.917 83.8125 612.125 87.8125C614.333 91.7708 615.438 96.1875 615.438 101.062ZM599.062 105.562C599.062 101.479 598.583 97.5208 597.625 93.6875C596.708 89.8125 595.333 86.625 593.5 84.125C591.708 81.5833 589.458 80.3125 586.75 80.3125C585.042 80.3125 583.417 81.5625 581.875 84.0625C580.333 86.5208 579.562 91.1458 579.562 97.9375C579.562 102.604 580.188 106.917 581.438 110.875C582.688 114.833 584.271 118.021 586.188 120.438C588.146 122.812 590.188 124 592.312 124C594.521 124 596.188 122.604 597.312 119.812C598.479 116.979 599.062 112.229 599.062 105.562ZM684.875 128H654.25V123.5C655.333 123.5 656.271 123.396 657.062 123.188C657.896 122.938 658.312 122.396 658.312 121.562C658.312 121.146 658.104 120.562 657.688 119.812C657.312 119.062 656.896 118.375 656.438 117.75L644.375 101.688V115.5C644.375 119.125 644.792 121.375 645.625 122.25C646.458 123.083 648.083 123.5 650.5 123.5V128H621.75V123.5C624.458 123.5 626.208 122.958 627 121.875C627.833 120.75 628.25 118.625 628.25 115.5V65C628.25 62.0417 627.958 60.0417 627.375 59C626.833 57.9167 626 57.375 624.875 57.375C624.208 57.375 623.5 57.4583 622.75 57.625C622.042 57.7917 621.396 57.9792 620.812 58.1875L618.875 54.375L639.875 47.6875H644.375V98.25L656.625 87.4375C657.25 86.8958 657.812 86.3125 658.312 85.6875C658.812 85.0208 659.062 84.3542 659.062 83.6875C659.062 82.7292 658.604 82.0208 657.688 81.5625C656.771 81.0625 655.875 80.7917 655 80.75V76.25H681.188V80.75C677.979 80.9167 675.479 81.4375 673.688 82.3125C671.896 83.1458 669.833 84.6667 667.5 86.875L658.688 95.4375L674.5 116.875C675.958 119.083 677.229 120.646 678.312 121.562C679.438 122.479 680.521 123.042 681.562 123.25C682.604 123.417 683.708 123.5 684.875 123.5V128ZM730.375 107.438L733.688 108.875C732.979 112.333 731.708 115.667 729.875 118.875C728.083 122.083 725.688 124.708 722.688 126.75C719.688 128.75 716 129.75 711.625 129.75C704.208 129.75 698.458 127.208 694.375 122.125C690.333 117 688.312 110.312 688.312 102.062C688.312 96.4375 689.562 91.5833 692.062 87.5C694.562 83.375 697.729 80.2083 701.562 78C705.438 75.75 709.417 74.625 713.5 74.625C717.125 74.625 720.458 75.375 723.5 76.875C726.583 78.375 729.062 80.7917 730.938 84.125C732.812 87.4583 733.729 91.875 733.688 97.375H701.312C701.312 100.583 701.979 103.75 703.312 106.875C704.646 110 706.583 112.583 709.125 114.625C711.667 116.625 714.729 117.625 718.312 117.625C720.771 117.625 723 116.875 725 115.375C727.042 113.875 728.833 111.229 730.375 107.438ZM701.25 92.5H718.562C718.562 90.9583 718.271 89.2292 717.688 87.3125C717.146 85.3958 716.208 83.75 714.875 82.375C713.542 80.9583 711.688 80.25 709.312 80.25C707.271 80.25 705.396 81.375 703.688 83.625C702.021 85.8333 701.208 88.7917 701.25 92.5ZM802.625 123.438L781.625 129.75H777.125V122.875C774.833 125.208 772.5 126.938 770.125 128.062C767.75 129.188 765.062 129.75 762.062 129.75C758.771 129.75 755.479 128.792 752.188 126.875C748.896 124.958 746.146 122.062 743.938 118.188C741.771 114.312 740.688 109.458 740.688 103.625C740.688 97.75 741.917 92.6458 744.375 88.3125C746.833 83.9792 749.958 80.625 753.75 78.25C757.542 75.875 761.417 74.6875 765.375 74.6875C767.5 74.6875 769.562 75.0417 771.562 75.75C773.562 76.4583 775.417 77.6042 777.125 79.1875V64.9375C777.125 61.9792 776.896 59.9792 776.438 58.9375C776.021 57.8958 775.208 57.375 774 57.375C772.292 57.375 770.667 57.6458 769.125 58.1875L767.75 54L788.75 47.6875H793.25V112.375C793.25 115.333 793.479 117.354 793.938 118.438C794.396 119.521 795.229 120.062 796.438 120.062C797.979 120.062 799.604 119.792 801.312 119.25L802.625 123.438ZM777.125 115.562V92.25C777.125 88.7917 776.062 85.875 773.938 83.5C771.812 81.0833 769.458 79.875 766.875 79.875C764.375 79.875 762.125 81.25 760.125 84C758.125 86.7083 757.125 91.5417 757.125 98.5C757.125 106 758.292 111.667 760.625 115.5C762.958 119.292 765.562 121.188 768.438 121.188C770.104 121.188 771.646 120.625 773.062 119.5C774.479 118.333 775.833 117.021 777.125 115.562Z" fill="#747C64"/>
<path d="M96.4926 1.95816C99.9326 3.83578 101.77 6.2323 104.118 9.33316C106.97 12.7762 106.97 12.7762 111.153 13.88C114.265 13.5749 117.292 13.0782 120.368 12.5207C128.472 11.7356 134.642 12.6858 141.368 17.5207C144.834 21.0187 146.914 24.5357 147.368 29.5207C148.107 29.6225 148.847 29.7243 149.61 29.8293C154.751 31.1182 158.694 34.9384 161.547 39.341C165.546 48.4436 163.427 59.1808 161.368 68.5207C162.28 68.9615 162.28 68.9615 163.211 69.4113C169.238 72.5121 173.22 77.0766 175.368 83.5207C175.934 89.2377 175.698 93.6758 172.368 98.5207C169.516 101.685 166.609 104.753 163.368 107.521C162.708 107.521 162.048 107.521 161.368 107.521C161.584 108.503 161.584 108.503 161.805 109.505C163.685 118.75 165.826 130.099 160.368 138.521C156.48 142.845 153.239 145.713 147.368 146.521C147.12 147.387 146.873 148.253 146.618 149.146C144.27 155.483 141.272 159.486 135.286 162.614C129.485 164.416 119.888 165.281 114.368 162.521C111.473 162.036 111.473 162.036 108.368 162.521C105.914 164.578 105.914 164.578 103.868 167.333C100.163 171.984 96.8389 175.035 90.7699 175.884C82.8764 175.721 78.116 174.208 72.3676 168.521C71.568 167.401 70.7761 166.276 69.9926 165.146C69.1263 164.279 68.2601 163.413 67.3676 162.521C64.141 162.541 64.141 162.541 61.8715 163.075C54.1537 164.448 44.1425 165.108 37.3676 160.521C33.927 157.303 31.1242 153.908 28.8676 149.771C27.0734 147.079 25.027 146.156 22.2113 144.677C16.844 141.311 13.9713 136.542 12.3676 130.521C12.1371 127.407 12.1371 127.407 12.1801 124.208C12.1852 123.074 12.1904 121.939 12.1957 120.771C12.3462 117.925 12.797 115.471 13.4301 112.708C13.8368 110.579 13.8368 110.579 13.3676 108.521C11.3261 106.195 9.10087 104.396 6.67226 102.482C2.69162 99.0947 0.785897 95.376 0.0316301 90.2277C-0.189057 85.1604 0.726372 81.9437 3.36757 77.5207C5.07131 75.928 6.82423 74.3867 8.61757 72.8957C12.3566 69.3566 12.3566 69.3566 13.7973 64.5949C13.4862 61.5202 12.9599 58.5528 12.3676 55.5207C11.7639 48.344 11.89 42.4161 16.3676 36.5207C19.3943 33.3823 22.4782 30.3814 26.4769 28.5597C28.8077 27.2788 29.4026 26.1099 30.6176 23.7707C33.8036 18.3385 38.3777 14.5173 44.3676 12.5207C46.1989 12.4246 48.0338 12.3908 49.8676 12.3957C50.9388 12.3892 52.01 12.3828 53.1137 12.3761C56.3676 12.5207 56.3676 12.5207 59.2152 13.1339C62.2372 13.7731 64.3147 14.0773 67.3676 13.5207C70.645 10.9877 73.2673 8.28447 75.9574 5.15738C81.4082 -0.805826 89.182 -1.2059 96.4926 1.95816Z" fill="#747C64"/>
<path d="M141.367 65.5205C149.334 68.2638 162.484 76.7549 166.367 84.5205C166.869 88.8669 166.858 90.847 164.242 94.4346C161.458 97.5891 158.353 100.132 154.992 102.646C154.453 103.062 153.915 103.478 153.359 103.907C149.535 106.812 145.576 109.209 141.367 111.521C140.783 110.703 140.783 110.703 140.188 109.868C133.402 100.722 125.681 93.4782 115.367 88.5205C116.707 85.8404 117.999 85.7296 120.742 84.583C129.341 80.4442 135.583 72.9452 141.367 65.5205Z" fill="#F7F6F3"/>
<path d="M35.3668 65.5205C36.8122 67.2432 36.8122 67.2432 38.4918 69.583C44.8589 77.9414 52.0154 82.8276 61.3669 87.5205C58.4305 89.8135 55.3892 91.6979 52.1794 93.583C45.2048 97.9678 39.9228 103.687 35.3668 110.521C28.8238 108.275 23.7541 103.719 18.3668 99.5205C17.6927 99.0049 17.0185 98.4893 16.3239 97.958C11.2808 93.9734 11.2808 93.9734 10.3669 90.5205C10.2297 86.9556 10.6064 84.5686 12.7301 81.6416C17.2551 76.8454 28.4339 65.5205 35.3668 65.5205Z" fill="#F8F7F5"/>
<path d="M108.242 51.6455C110.246 51.9736 110.246 51.9736 112.367 52.5205C113.556 52.6984 113.556 52.6984 114.77 52.8799C117.372 53.4367 119.163 54.0198 121.367 55.5205C124.057 60.3468 125.036 66.0565 124.367 71.5205C117.626 78.2353 106.112 82.7203 96.6172 82.7705C95.5447 82.688 94.4722 82.6055 93.3672 82.5205C94.1887 72.3337 96.5115 54.2944 108.242 51.6455Z" fill="#F6F5F3"/>
<path d="M93.3672 93.5205C104.877 93.8063 114.96 98.0645 124.367 104.521C123.526 115.723 123.526 115.723 121.367 120.521C118.773 122.25 117.396 122.934 114.492 123.646C113.835 123.813 113.177 123.981 112.5 124.153C110.009 124.582 107.889 124.78 105.367 124.521C98.3821 119.114 95.351 107.895 93.8359 99.6182C93.6056 97.5927 93.4725 95.5563 93.3672 93.5205Z" fill="#F7F6F3"/>
<path d="M82.3676 93.5201C83.2114 104.489 78.9871 113.945 72.3676 122.52C71.3676 123.52 71.3676 123.52 67.8051 123.77C63.2952 123.648 58.9819 123.453 55.3676 120.52C53.0661 115.648 51.7006 109.911 52.3676 104.52C59.2459 96.9504 72.522 93.0942 82.3676 93.5201Z" fill="#F7F6F4"/>
<path d="M67.9922 51.708C72.7929 52.8637 74.2152 55.377 76.7891 59.458C80.49 66.6401 83.1242 74.3822 82.3672 82.5205C70.8858 82.2719 61.3428 78.6602 52.3672 71.5205C52.6267 68.5089 52.9764 65.5178 53.3672 62.5205C53.5322 61.2418 53.6972 59.963 53.8672 58.6455C55.5643 55.1099 56.041 54.8656 59.5547 53.583C62.3546 52.8931 65.1775 52.3389 67.9922 51.708Z" fill="#F7F7F4"/>
<path d="M69.3672 27.5205C75.5133 29.1474 78.696 33.7643 81.8594 38.9814C83.0667 41.1437 84.2378 43.3167 85.3672 45.5205C87.3472 45.5205 89.3272 45.5205 91.3672 45.5205C91.8777 44.4512 91.8777 44.4512 92.3984 43.3604C95.7985 36.6417 99.3193 32.018 105.367 27.5205C107.93 29.7705 107.93 29.7705 110.367 32.5205C110.211 35.1783 109.725 36.2023 107.73 37.9775C107.054 38.4248 106.377 38.8721 105.68 39.333C97.8495 44.926 93.6146 52.0257 89.3672 60.5205C88.7072 60.5205 88.0472 60.5205 87.3672 60.5205C86.2356 58.729 85.1877 56.8843 84.1797 55.0205C79.2114 46.2952 73.6357 40.1903 65.3672 34.5205C66.6872 32.2105 68.0072 29.9005 69.3672 27.5205Z" fill="#F4F3F1"/>
<path d="M87.3672 115.521C90.4755 117.593 90.9501 118.322 92.4922 121.521C96.6456 129.288 102.656 136.17 110.367 140.521C109.871 145.11 109.871 145.11 107.32 147.188C106.676 147.628 106.031 148.068 105.367 148.521C98.6297 143.51 94.966 138.059 91.3672 130.521C88.5124 130.051 88.5124 130.051 85.3672 130.521C83.3545 132.948 83.3545 132.948 81.9297 136.146C79.0096 141.635 76.437 144.942 71.3672 148.521C70.7072 148.521 70.0472 148.521 69.3672 148.521C68.0472 146.211 66.7272 143.901 65.3672 141.521C66.0568 141.022 66.7465 140.523 67.457 140.009C76.2245 133.31 82.6523 125.61 87.3672 115.521Z" fill="#F4F4F1"/>
<path d="M92.3672 10.5206C95.2259 12.4405 97.5893 14.5555 99.3672 17.5206C99.2349 20.1823 98.6675 21.2127 96.8086 23.1183C96.1886 23.6017 95.5685 24.0851 94.9297 24.5831C92.4544 26.5313 91.163 27.8269 89.3672 30.5206C86.1816 29.1243 84.1277 27.475 81.7422 24.9581C79.322 22.3804 79.322 22.3804 76.3672 20.5206C79.6286 13.1825 83.9208 8.64363 92.3672 10.5206Z" fill="#F6F5F3"/>
<path d="M87.3672 145.521C90.6438 146.613 91.2833 147.348 93.3672 149.958C95.3315 152.408 96.6879 153.734 99.3672 155.521C98.6106 159.475 97.1493 161.571 94.2383 164.294C91.3637 166.178 89.0208 166.462 85.625 166.255C81.3004 164.848 78.7136 161.278 76.3672 157.521C76.3672 156.861 76.3672 156.201 76.3672 155.521C78.0834 154.299 79.8024 153.082 81.543 151.896C83.9401 150.089 85.63 147.953 87.3672 145.521Z" fill="#F7F6F3"/>
<path d="M138.367 124.521C139.368 127.831 139.471 130.821 139.43 134.271C139.421 135.255 139.412 136.24 139.402 137.255C139.391 138.003 139.379 138.75 139.367 139.521C137.784 139.575 136.201 139.613 134.617 139.646C133.735 139.669 132.854 139.692 131.945 139.716C129.254 139.512 127.668 138.886 125.367 137.521C125.64 133.606 126.117 131.818 128.68 128.771C132.064 125.937 133.932 124.521 138.367 124.521Z" fill="#F1F1ED"/>
<path d="M139.367 36.5208C139.585 41.9597 139.471 46.3916 137.367 51.5208C129.306 49.7463 129.306 49.7463 127.102 46.8684C125.874 44.0225 125.367 41.616 125.367 38.5208C130.016 36.1216 134.278 36.3212 139.367 36.5208Z" fill="#F3F2EF"/>
<path d="M39.3672 124.521C47.4954 126.957 47.4954 126.957 49.6328 130.79C50.3514 133.027 50.938 135.212 51.3672 137.521C46.7187 139.92 42.4563 139.72 37.3672 139.521C37.3129 137.771 37.2743 136.021 37.2422 134.271C37.2074 132.809 37.2074 132.809 37.1719 131.317C37.3686 128.501 37.9215 126.911 39.3672 124.521Z" fill="#F3F2EF"/>
<path d="M37.3667 37.5205C38.95 37.4933 40.5333 37.474 42.1167 37.458C43.4393 37.4406 43.4393 37.4406 44.7886 37.4229C47.1486 37.5122 49.1117 37.8514 51.3667 38.5205C49.387 46.8042 49.387 46.8042 45.4292 49.583C42.3667 50.5205 42.3667 50.5205 38.3667 50.5205C37.4944 47.5257 37.2584 44.8847 37.3042 41.7705C37.3133 40.9713 37.3223 40.1721 37.3316 39.3486C37.3432 38.7454 37.3548 38.1421 37.3667 37.5205Z" fill="#F7F6F3"/>
<path d="M148.367 40.5205C150.741 41.4699 152.099 42.0982 153.488 44.2861C154.499 46.8562 154.601 48.7666 154.555 51.5205C154.545 52.7889 154.545 52.7889 154.535 54.083C154.379 56.353 153.998 58.3401 153.367 60.5205C150.405 59.9077 148.987 59.2668 146.367 57.5205C146.984 51.847 147.647 46.1819 148.367 40.5205Z" fill="#EBEBE5"/>
<path d="M153.367 115.521C155 120.418 154.884 125.41 154.367 130.521C152.492 133.771 152.492 133.771 150.367 135.521C149.707 135.521 149.047 135.521 148.367 135.521C148.029 133.626 147.697 131.73 147.367 129.833C147.182 128.777 146.996 127.722 146.805 126.634C146.412 123.837 146.1 121.332 146.367 118.521C148.751 116.702 150.326 115.521 153.367 115.521Z" fill="#ECECE6"/>
<path d="M115.367 22.5205C117.764 22.4391 120.157 22.3798 122.555 22.333C123.228 22.3078 123.902 22.2827 124.596 22.2568C129.065 22.1914 131.823 22.7642 135.367 25.5205C135.697 26.1805 136.027 26.8405 136.367 27.5205C135.475 27.6532 134.583 27.786 133.664 27.9228C132.494 28.0994 131.323 28.276 130.117 28.458C128.377 28.719 128.377 28.719 126.602 28.9853C124.136 29.3932 121.773 29.8595 119.367 30.5205C115.367 24.7705 115.367 24.7705 115.367 22.5205Z" fill="#EFEFEA"/>
<path d="M119.367 145.521C120.316 145.83 121.265 146.139 122.242 146.458C126.877 147.8 131.573 148.154 136.367 148.521C136.367 150.521 136.367 150.521 134.883 152.134C131.348 154.082 128.038 153.843 124.117 153.708C123 153.688 123 153.688 121.859 153.667C120.028 153.632 118.198 153.578 116.367 153.521C116.367 149.945 117.456 148.468 119.367 145.521Z" fill="#F0EFEB"/>
<path d="M58.3672 22.5203C59.0272 23.1803 59.6872 23.8403 60.3672 24.5203C59.3772 26.1703 58.3872 27.8203 57.3672 29.5203C56.2328 29.3759 55.0984 29.2315 53.9297 29.0828C49.4137 28.5172 44.8917 28.0125 40.3672 27.5203C44.7873 20.9719 50.9825 21.5632 58.3672 22.5203Z" fill="#F2F2EF"/>
<path d="M23.3672 115.521C26.8322 117.501 26.8322 117.501 30.3672 119.521C29.3772 124.801 28.3872 130.081 27.3672 135.521C23.3672 132.521 23.3672 132.521 22.3672 129.521C22.2739 127.877 22.2372 126.229 22.2422 124.583C22.2396 123.728 22.237 122.874 22.2344 121.993C22.3579 119.694 22.723 117.724 23.3672 115.521Z" fill="#F2F1EE"/>
<path d="M26.367 40.5205C26.697 40.5205 27.027 40.5205 27.367 40.5205C27.4998 41.3404 27.6325 42.1602 27.7693 43.0049C27.9459 44.0825 28.1225 45.1602 28.3045 46.2705C28.4785 47.3379 28.6525 48.4052 28.8318 49.5049C29.254 51.884 29.739 54.1897 30.367 56.5205C28.057 57.8405 25.747 59.1605 23.367 60.5205C22.0748 55.5133 21.0456 49.4635 23.2264 44.6064C24.3045 42.958 24.3045 42.958 26.367 40.5205Z" fill="#F3F2F0"/>
<path d="M57.3672 146.52C58.3572 148.5 59.3472 150.48 60.3672 152.52C57.5551 153.926 55.1271 153.766 51.9922 153.833C50.279 153.889 50.279 153.889 48.5312 153.946C44.788 153.442 43.6858 152.416 41.3672 149.52C43.094 149.012 44.8238 148.514 46.5547 148.02C47.5176 147.742 48.4805 147.463 49.4727 147.177C52.2206 146.554 54.5632 146.397 57.3672 146.52Z" fill="#F6F5F3"/>
</svg>
